<svg width="200" height="92" viewBox="0 0 200 92" fill="none" xmlns="http://www.w3.org/2000/svg">
<path d="M19.57 26.542C19.57 34.257 19.57 48.05 31.142 48.05C36.34 48.05 43.45 44.041 44.942 38.712C44.942 38.712 45.382 37.398 45.382 33.08C45.382 15.863 40.48 7.13 30.997 7.13C23.578 7.13 19.57 16.33 19.57 26.542ZM27.882 56.652C14.68 56.652 0 46.124 0 28.48C0 11.421 17.802 0 30.997 0C51.31 0 63.624 14.68 63.624 35C63.624 61.396 46.42 91.513 19.432 91.513C18.1933 91.5053 16.9551 91.4617 15.719 91.382L14.24 86.782C18.4 85.428 37.97 85.704 43.884 47.754C40.598 52.492 35.748 56.652 27.882 56.652ZM107.114 25.247C107.114 16.869 104.8 8.365 97.296 8.365C89.929 8.365 87.616 16.869 87.616 25.247C87.616 31.74 90.796 39.829 97.296 39.829C103.933 39.829 107.114 31.739 107.114 25.247ZM84.58 65.51C84.58 74.178 89.055 83.128 97.283 83.128C105.655 83.128 110.13 74.178 110.13 65.51C110.13 56.566 105.944 46.742 97.283 46.742C88.622 46.742 84.58 56.6 84.58 65.51ZM113.593 42.57C123.266 46.893 128.457 54.99 128.457 65.51C128.457 81.11 112.594 90.199 97.283 90.199C82.129 90.199 66.246 81.111 66.246 65.51C66.246 54.996 71.444 46.893 80.979 42.859C73.91 38.955 69 31.739 69 23.657C69 10.665 82.998 1.314 97.257 1.314C111.714 1.314 125.698 10.692 125.698 23.657C125.698 31.74 120.783 38.955 113.568 42.569M171.474 37.391C184.616 37.391 200 43.437 200 57.27C200 74.841 171.329 88.247 154.618 88.247H151.037V82.471H154.618C166.874 82.471 180.555 69.374 180.555 59.471C180.555 52.407 173.931 48.648 165.868 48.648H152.318V3.24H197.417L190.925 18.512H159.809V37.392L171.474 37.391ZM143.913 83.457C143.913 85.2435 143.203 86.9568 141.94 88.2201C140.677 89.4833 138.964 90.193 137.177 90.193C135.391 90.193 133.677 89.4833 132.414 88.2201C131.151 86.9568 130.441 85.2435 130.441 83.457C130.441 81.6705 131.151 79.9572 132.414 78.6939C133.677 77.4307 135.391 76.721 137.177 76.721C138.964 76.721 140.677 77.4307 141.94 78.6939C143.203 79.9572 143.913 81.6705 143.913 83.457Z" fill="white"/>
</svg>
