<svg width="125" height="125" viewBox="0 0 125 125" fill="none" xmlns="http://www.w3.org/2000/svg">
<path d="M59.8958 62.5H34.375C33.5462 62.5 32.7513 62.8292 32.1653 63.4153C31.5792 64.0013 31.25 64.7962 31.25 65.625V101.042C31.25 101.87 31.5792 102.665 32.1653 103.251C32.7513 103.837 33.5462 104.167 34.375 104.167H90.625C91.4538 104.167 92.2487 103.837 92.8347 103.251C93.4208 102.665 93.75 101.87 93.75 101.042V96.3542M52.7656 22.8385C55.401 21.5885 58.6094 20.8333 62.5 20.8333C79.1667 20.8333 83.3333 34.724 83.3333 41.6667V62.5H90.625C91.4538 62.5 92.2487 62.8292 92.8347 63.4153C93.4208 64.0013 93.75 64.7962 93.75 65.625V67.7083M41.6667 41.6667V62.5M15.625 15.625L109.375 109.375" stroke="#EC2027" stroke-width="4" stroke-linecap="round" stroke-linejoin="round"/>
</svg>
