<svg width="19" height="27" viewBox="0 0 19 27" fill="none" xmlns="http://www.w3.org/2000/svg">
<path d="M10.0307 14.3952L5.59079 12.5703L1.98831 21.3632L0.589986 24.7761C0.57774 24.8067 0.574899 24.8403 0.581824 24.8725C0.58875 24.9047 0.605129 24.9342 0.628869 24.9571C0.652609 24.98 0.682634 24.9953 0.715108 25.001C0.747583 25.0068 0.781035 25.0027 0.811191 24.9894L3.66315 23.5594L4.70597 26.5852C4.71828 26.616 4.73953 26.6424 4.76699 26.661C4.79446 26.6796 4.82686 26.6895 4.86002 26.6895C4.89319 26.6895 4.92559 26.6796 4.95305 26.661C4.98051 26.6424 5.00177 26.616 5.01408 26.5852L6.0569 24.0334L10.0307 14.3952Z" fill="#EC2027"/>
<path d="M8.96875 14.3952L13.4165 12.5703L17.019 21.3632L18.4173 24.7761C18.4311 24.8075 18.4347 24.8425 18.4277 24.8762C18.4208 24.9098 18.4035 24.9405 18.3783 24.9639C18.3532 24.9873 18.3214 25.0023 18.2873 25.0069C18.2533 25.0114 18.2187 25.0053 18.1882 24.9894L15.3205 23.5594L14.2777 26.5852C14.2653 26.616 14.2441 26.6424 14.2166 26.661C14.1892 26.6796 14.1568 26.6895 14.1236 26.6895C14.0904 26.6895 14.058 26.6796 14.0306 26.661C14.0031 26.6424 13.9819 26.616 13.9696 26.5852L12.9267 24.0334L8.96875 14.3952Z" fill="#EC2027"/>
<path d="M9.70528 1.35257L11.7198 0.444056C11.8295 0.394001 11.9535 0.384803 12.0694 0.418122C12.1853 0.45144 12.2855 0.525082 12.3518 0.62576L13.5606 2.4823C13.5977 2.5409 13.6475 2.59046 13.7063 2.62736C13.7651 2.66426 13.8313 2.68758 13.9003 2.6956L16.0886 3.02741C16.2038 3.04591 16.3089 3.1043 16.3854 3.19239C16.4619 3.28047 16.5051 3.39265 16.5073 3.50932V5.72136C16.5078 5.79137 16.5227 5.86052 16.5513 5.92443C16.5798 5.98835 16.6214 6.04564 16.6732 6.09267L18.3323 7.5542C18.4197 7.63166 18.4772 7.73743 18.4945 7.85298C18.5118 7.96853 18.488 8.08649 18.4271 8.18621L17.242 10.0506C17.2059 10.1105 17.1823 10.1771 17.1728 10.2464C17.1633 10.3157 17.168 10.3862 17.1867 10.4536L17.795 12.5787C17.8267 12.6922 17.8171 12.8132 17.7679 12.9202C17.7187 13.0273 17.6332 13.1134 17.5264 13.1633L15.5119 14.0955C15.4493 14.1237 15.3936 14.1651 15.3485 14.217C15.3035 14.2688 15.2703 14.3298 15.2512 14.3957L14.6113 16.5209C14.5768 16.6321 14.5037 16.7274 14.4053 16.7897C14.3068 16.852 14.1894 16.8771 14.0741 16.8606L11.8778 16.5604C11.8098 16.552 11.7408 16.5583 11.6754 16.5787C11.61 16.5992 11.5498 16.6333 11.4986 16.6789L9.82378 18.1167C9.73484 18.1934 9.62129 18.2357 9.50383 18.2357C9.38636 18.2357 9.27281 18.1934 9.18387 18.1167L7.50113 16.6789C7.44851 16.6331 7.38686 16.5989 7.32017 16.5785C7.25349 16.5581 7.18325 16.5519 7.11403 16.5604L4.91778 16.8606C4.80247 16.8771 4.68505 16.852 4.58659 16.7897C4.48814 16.7274 4.41509 16.6321 4.38057 16.5209L3.74856 14.3957C3.72675 14.33 3.69165 14.2694 3.64544 14.2177C3.59924 14.1661 3.54291 14.1245 3.47995 14.0955L1.47331 13.1633C1.36583 13.1147 1.27993 13.0283 1.23188 12.9205C1.18383 12.8128 1.17697 12.6912 1.21261 12.5787L1.82092 10.4536C1.83995 10.3858 1.84415 10.3147 1.83325 10.2452C1.82234 10.1757 1.79658 10.1093 1.75772 10.0506L0.580595 8.18621C0.515553 8.08838 0.48849 7.97015 0.504493 7.85377C0.520496 7.73738 0.578463 7.63085 0.667496 7.5542L2.33443 6.09267C2.38628 6.04564 2.4278 5.98835 2.45636 5.92443C2.48492 5.86052 2.49989 5.79137 2.50033 5.72136V3.50932C2.50069 3.39336 2.54216 3.28129 2.61739 3.19305C2.69261 3.1048 2.7967 3.04611 2.91114 3.02741L5.12319 2.6956C5.19105 2.68756 5.2562 2.66417 5.31369 2.62721C5.37118 2.59026 5.4195 2.5407 5.45499 2.4823L6.67162 0.62576C6.73599 0.529383 6.83199 0.458494 6.94304 0.425323C7.05409 0.392152 7.17324 0.398777 7.27993 0.444056L9.30237 1.35257C9.36606 1.37974 9.43459 1.39374 9.50383 1.39374C9.57307 1.39374 9.64159 1.37974 9.70528 1.35257Z" fill="white"/>
<path d="M15.4324 9.31574C15.434 10.4895 15.0874 11.6374 14.4364 12.6141C13.7854 13.5908 12.8594 14.3525 11.7754 14.8028C10.6914 15.253 9.49821 15.3717 8.3468 15.1436C7.19539 14.9156 6.13748 14.3511 5.30695 13.5217C4.47641 12.6923 3.91056 11.6351 3.68099 10.484C3.45142 9.33292 3.56845 8.13958 4.01728 7.055C4.4661 5.97043 5.22654 5.04335 6.20239 4.39107C7.17824 3.73879 8.32565 3.39063 9.49942 3.39063C11.0716 3.39062 12.5795 4.01462 13.6919 5.12557C14.8043 6.23652 15.4303 7.74358 15.4324 9.31574Z" fill="#EC2027"/>
</svg>
